# xmcd
#
# Track frame offsets: 
#        150
#        14160
#        31337
#        43762
#        59982
#        75370
#        90625
#        105712
#        117582
#        132485
#
# Disc length: 1980 seconds
#
# Revision: 2
# Processed by: cddbd v1.5.2PL0 Copyright (c) Steve Scherf et al.
# Submitted via: ExactAudioCopy v0.99pb5
#
DISCID=8d07ba0a
DTITLE=Neal Mccoy - Greatest Hits
DYEAR=1992
DGENRE=
TTITLE0=Now I Pray For Rain
TTITLE1=No Doubt About It
TTITLE2=Wink
TTITLE3=The City Put The Country Back In Me
TTITLE4=For A Change
TTITLE5=They're Playin' Our Song
TTITLE6=If I Was A Drinkin' Man
TTITLE7=You Gotta Love That
TTITLE8=Then You Can Tell Me Goodbye
TTITLE9=The Shake
EXTD=
EXTT0=
EXTT1=
EXTT2=
EXTT3=
EXTT4=
EXTT5=
EXTT6=
EXTT7=
EXTT8=
EXTT9=
PLAYORDER=
